<?xml version="1.0" standalone="no"?>
<!DOCTYPE svg PUBLIC "-//W3C//DTD SVG 20010904//EN"
 "http://www.w3.org/TR/2001/REC-SVG-20010904/DTD/svg10.dtd">
<svg version="1.0" xmlns="http://www.w3.org/2000/svg"
 width="500.000000pt" height="500.000000pt" viewBox="0 0 500.000000 500.000000"
 preserveAspectRatio="xMidYMid meet">
<metadata>
Created by potrace 1.11, written by Peter Selinger 2001-2013
</metadata>
<g transform="translate(0.000000,500.000000) scale(0.100000,-0.100000)"
fill="#000000" stroke="none">
<path d="M0 2500 l0 -2500 2500 0 2500 0 0 2500 0 2500 -2500 0 -2500 0 0
-2500z m1056 1972 c30 -19 271 -483 394 -757 35 -77 82 -182 105 -233 l42 -92
53 117 c29 65 75 168 102 228 81 178 281 573 334 660 l50 80 119 3 c66 1 126
-2 132 -6 7 -5 17 -50 22 -107 52 -540 84 -958 102 -1368 11 -221 10 -260 -2
-268 -22 -14 -262 -11 -281 4 -12 9 -17 42 -22 157 -3 80 -10 260 -16 400 -6
140 -15 293 -20 340 -6 47 -10 114 -11 150 -2 124 -9 125 -63 9 -27 -57 -78
-164 -113 -237 -35 -73 -63 -135 -63 -137 0 -2 -13 -32 -29 -67 -30 -65 -145
-326 -161 -365 -9 -22 -14 -23 -134 -23 l-124 0 -13 33 c-28 69 -220 498 -274
612 -31 66 -75 158 -96 204 -22 46 -42 81 -45 79 -5 -6 -19 -205 -34 -508 -35
-690 -31 -648 -54 -654 -33 -9 -260 -7 -274 3 -11 7 -13 40 -7 167 22 550 102
1541 127 1571 11 14 233 19 254 5z m2062 -329 c1 -183 6 -333 10 -333 9 0 453
447 573 578 l85 92 182 0 c104 0 183 -4 187 -10 9 -15 -144 -180 -518 -558
-137 -139 -248 -254 -246 -256 2 -2 40 -32 84 -66 180 -141 484 -476 628 -694
98 -147 103 -156 86 -167 -20 -12 -316 -11 -340 1 -10 6 -42 45 -70 87 -106
156 -310 382 -464 512 -101 86 -174 141 -186 141 -5 0 -9 -150 -9 -369 0 -327
-2 -370 -16 -375 -27 -10 -264 -7 -285 4 -19 10 -19 31 -19 875 0 681 3 864
13 869 6 2 77 4 157 3 l145 -2 3 -332z m837 -1787 c146 -39 229 -81 306 -153
96 -89 145 -196 155 -336 16 -216 -77 -398 -254 -498 l-61 -34 35 -45 c158
-199 407 -622 391 -664 -6 -14 -27 -16 -155 -16 -103 0 -153 4 -165 13 -9 6
-49 68 -88 137 -81 143 -137 228 -256 388 l-83 112 -145 0 -145 0 0 -319 c0
-282 -2 -320 -16 -325 -27 -10 -264 -7 -285 4 -19 10 -19 30 -19 854 0 663 3
846 13 853 16 13 168 42 242 47 33 2 152 2 265 1 153 -2 220 -6 265 -19z
m-2201 8 c14 -5 16 -28 16 -145 l0 -139 -260 0 -260 0 0 -725 c0 -706 0 -725
-19 -735 -21 -11 -241 -14 -278 -4 l-23 6 0 729 0 729 -260 0 -260 0 0 138 c0
76 3 142 7 145 8 9 1316 9 1337 1z m480 0 c14 -6 16 -79 16 -730 l0 -724 373
0 c277 0 376 -3 385 -12 8 -8 12 -54 12 -140 0 -116 -2 -128 -19 -138 -21 -11
-1008 -15 -1048 -4 l-23 6 0 868 c0 685 3 869 13 873 18 8 272 8 291 1z"/>
<path d="M3497 2083 c-4 -3 -7 -125 -7 -270 l0 -263 149 0 c160 0 265 16 337
51 96 46 140 189 96 311 -33 91 -112 148 -234 168 -70 11 -331 14 -341 3z"/>
</g>
</svg>
